<svg xmlns="http://www.w3.org/2000/svg" version="1.1" xmlns:xlink="http://www.w3.org/1999/xlink" xmlns:svgjs="http://svgjs.dev/svgjs" width="1500" height="1500" viewBox="0 0 1500 1500"><rect width="1500" height="1500" fill="#ffffff"></rect><g transform="matrix(0.6666666666666666,0,0,0.6666666666666666,249.39393939393938,435.99032258064517)"><svg viewBox="0 0 396 248" data-background-color="#000000" preserveAspectRatio="xMidYMid meet" height="939" width="1500" xmlns="http://www.w3.org/2000/svg" xmlns:xlink="http://www.w3.org/1999/xlink"><g id="tight-bounds" transform="matrix(1,0,0,1,0.2400000000000091,0.4000000000000057)"><svg viewBox="0 0 395.52 247.2" height="247.2" width="395.52"><g><svg></svg></g><g><svg viewBox="0 0 395.52 247.2" height="247.2" width="395.52"><mask id="0972c6be-6847-46aa-9929-f281cec56fa8"><rect width="640" height="400" fill="white"></rect><g transform="matrix(1,0,0,1,39.55199999999999,73.95676623732528)"><svg viewBox="0 0 316.416 99.28646752534942" height="99.28646752534942" width="316.416"><g><svg viewBox="0 0 316.416 99.28646752534942" height="99.28646752534942" width="316.416"><g><svg viewBox="0 0 316.416 99.28646752534942" height="99.28646752534942" width="316.416"><g><svg viewBox="0 0 316.416 99.28646752534942" height="99.28646752534942" width="316.416"><g id="SvgjsG6185"><svg viewBox="0 0 316.416 99.28646752534942" height="99.28646752534942" width="316.416" id="SvgjsSvg6184"><g><svg viewBox="0 0 316.416 99.28646752534942" height="99.28646752534942" width="316.416"><g transform="matrix(1,0,0,1,0,0)"><svg width="316.416" viewBox="-3 -41.25 183.44 58.25" height="99.28646752534942" data-palette-color="url(#d5ec0ea0-54b7-4055-a79d-c10e4b56a5a4)"><path d="M5.5-29.85L1-31.05 1.65-33Q3.45-32.9 5.15-32.85 6.85-32.8 9.2-32.8L9.2-32.8Q11.35-32.8 13.65-32.85 15.95-32.9 18.05-33L18.05-33 18.75-31.05 13.05-29.9Q13-25.75 13-22.4 13-19.05 13-15.65L13-15.65Q13-13.05 12.98-9.68 12.95-6.3 13.05-3.45L13.05-3.45Q16.15-3.1 18.82-3.3 21.5-3.5 23.65-4.45L23.65-4.45 24.8-10.5 28-10.5Q28-8.2 28.13-5.33 28.25-2.45 28.45 0L28.45 0Q22.35-0.1 17.6-0.13 12.85-0.15 9.4-0.15L9.4-0.15Q6.85-0.15 5.03-0.1 3.2-0.05 1.65 0L1.65 0 1.05-1.9 5.5-2.95Q5.6-6.9 5.68-9.83 5.75-12.75 5.75-15.15L5.75-15.15Q5.75-18.55 5.78-22.18 5.8-25.8 5.5-29.85L5.5-29.85ZM41.7-21.75L41.7-21.75Q41.65-18.85 41.57-16.2 41.5-13.55 41.5-11.4L41.5-11.4Q41.5-9.55 41.57-7.15 41.65-4.75 41.7-2.9L41.7-2.9 45.7-1.85 44.85 0Q43.55-0.1 42.22-0.13 40.9-0.15 38.25-0.15L38.25-0.15Q35.8-0.15 34.42-0.1 33.05-0.05 31.5 0L31.5 0 30.7-1.85 34.95-2.9Q35.05-5.4 35.07-7.25 35.1-9.1 35.05-11.3L35.05-11.3Q35.05-12.45 35.02-13.35 35-14.25 34.95-15.38 34.9-16.5 34.75-18.25L34.75-18.25 31.2-18.9 30.45-20.8Q31.6-20.85 33.42-20.95 35.25-21.05 37.4-21.25 39.55-21.45 41.7-21.75ZM37.95-25.45L37.95-25.45Q36.35-25.45 35.2-26.65 34.05-27.85 34.05-29.6L34.05-29.6Q34.05-31.25 35.2-32.45 36.35-33.65 37.95-33.65L37.95-33.65Q39.55-33.65 40.7-32.45 41.85-31.25 41.85-29.6L41.85-29.6Q41.85-27.85 40.7-26.65 39.55-25.45 37.95-25.45ZM57.65-37.25L57.65-37.25Q57.6-35.85 57.6-34.38 57.6-32.9 57.6-31.45L57.6-31.45Q57.6-28.85 57.62-26.75 57.65-24.65 57.67-22.58 57.7-20.5 57.7-17.9L57.7-17.9Q57.7-16.85 57.7-14.93 57.7-13 57.7-10.85 57.7-8.7 57.72-6.85 57.75-5 57.75-4.1L57.75-4.1 56.65-3.15Q56.1-2.5 55.27-1.68 54.45-0.85 53.6 0L53.6 0 50.5 0Q50.6-1.3 50.65-3.4 50.7-5.5 50.75-8 50.8-10.5 50.82-13.05 50.85-15.6 50.87-17.85 50.9-20.1 50.9-21.7L50.9-21.7Q50.9-24.65 50.75-27.4 50.6-30.15 50.25-33.55L50.25-33.55 46.25-34.2 45.8-36.35Q46.65-36.4 48.12-36.45 49.6-36.5 51.35-36.63 53.1-36.75 54.77-36.9 56.45-37.05 57.65-37.25ZM64.6-21.8L64.6-21.8Q67.35-21.8 69.2-20.28 71.05-18.75 72.02-16.32 73-13.9 73-11.2L73-11.2Q73-8.35 71.92-5.73 70.85-3.1 68.7-1.43 66.55 0.25 63.3 0.25L63.3 0.25Q60.55 0.25 58.47-1.3 56.4-2.85 54.9-5.25L54.9-5.25 56.2-7.35Q57-5.75 58.35-4.5 59.7-3.25 62-3.25L62-3.25Q63.35-3.25 64.3-4.28 65.25-5.3 65.75-6.95 66.25-8.6 66.25-10.4L66.25-10.4Q66.25-12.2 65.75-13.93 65.25-15.65 64.25-16.85 63.25-18.05 61.75-18.25L61.75-18.25Q60.2-18 58.95-15.93 57.7-13.85 57.7-10.2L57.7-10.2 56.25-14.55Q56.75-16.5 57.82-18.15 58.9-19.8 60.6-20.8 62.3-21.8 64.6-21.8ZM85.64-21.7L85.64-21.7Q85.69-20.55 85.79-19 85.89-17.45 85.99-16.18 86.09-14.9 86.09-14.45L86.09-14.45 86.44-3.1 91.39-1.85 90.64 0Q89.79-0.05 88.39-0.08 86.99-0.1 85.49-0.13 83.99-0.15 82.79-0.15L82.79-0.15Q81.24-0.15 79.44-0.1 77.64-0.05 76.14 0L76.14 0 75.39-1.85 79.44-2.9Q79.44-5.15 79.44-6.93 79.44-8.7 79.44-10.8L79.44-10.8Q79.44-11.95 79.42-12.93 79.39-13.9 79.34-15.13 79.29-16.35 79.14-18.15L79.14-18.15 75.74-18.7 75.04-20.8Q76.19-20.85 78.12-20.95 80.04-21.05 82.09-21.25 84.14-21.45 85.64-21.7ZM92.34-21.8L92.34-21.8Q93.74-21.8 94.94-21.28 96.14-20.75 97.24-19.6L97.24-19.6Q96.94-18.1 96.69-17 96.44-15.9 96.12-14.83 95.79-13.75 95.34-12.2L95.34-12.2 92.54-12.2Q92.19-14.05 91.52-15.43 90.84-16.8 89.69-17.3L89.69-17.3Q88.44-16.5 87.32-14.33 86.19-12.15 86.19-8.55L86.19-8.55 84.24-11.45Q84.64-14.25 85.79-16.6 86.94-18.95 88.62-20.38 90.29-21.8 92.34-21.8ZM112.04-21.8L112.04-21.8Q114.69-21.8 116.64-20.18 118.59-18.55 118.59-15.25L118.59-15.25Q118.59-13.1 118.52-11.65 118.44-10.2 118.37-9.08 118.29-7.95 118.29-6.75L118.29-6.75Q118.29-5.35 118.47-4.78 118.64-4.2 119.44-4.2L119.44-4.2Q120.14-4.2 121.54-4.85L121.54-4.85 122.44-2.65Q120.64-1.4 118.99-0.58 117.34 0.25 115.49 0.25L115.49 0.25Q113.94 0.25 112.79-0.98 111.64-2.2 111.64-4.85L111.64-4.85Q111.64-7.3 111.87-9.68 112.09-12.05 112.09-13.9L112.09-13.9Q112.09-15.45 111.64-16.4 111.19-17.35 110.14-17.7L110.14-17.7Q107.84-17.6 105.74-16.85 103.64-16.1 101.44-14.95L101.44-14.95 100.14-17.1Q102.99-19.2 105.92-20.5 108.84-21.8 112.04-21.8ZM115.59-13.95L115.59-13.95 112.59-9.8Q111.49-9.55 110.64-9.3 109.79-9.05 109.09-8.9L109.09-8.9Q107.39-8.55 106.74-8.03 106.09-7.5 106.09-6.2L106.09-6.2Q106.09-5.15 106.64-4.55 107.19-3.95 108.14-3.95L108.14-3.95Q109.29-3.95 111.06-5.03 112.84-6.1 114.09-7.75L114.09-7.75 115.04-5.7Q114.24-4.7 112.77-3.25 111.29-1.8 109.24-0.68 107.19 0.45 104.74 0.45L104.74 0.45Q103.49 0.45 102.31-0.23 101.14-0.9 100.37-2.25 99.59-3.6 99.59-5.6L99.59-5.6Q99.59-7.7 100.87-8.88 102.14-10.05 104.34-10.7 106.54-11.35 109.19-11.8L109.19-11.8Q110.99-12.1 112.54-12.58 114.09-13.05 115.59-13.95ZM134.44-21.7L134.44-21.7Q134.49-20.55 134.59-19 134.69-17.45 134.79-16.18 134.89-14.9 134.89-14.45L134.89-14.45 135.24-3.1 140.19-1.85 139.44 0Q138.59-0.05 137.19-0.08 135.79-0.1 134.29-0.13 132.79-0.15 131.59-0.15L131.59-0.15Q130.04-0.15 128.24-0.1 126.44-0.05 124.94 0L124.94 0 124.19-1.85 128.24-2.9Q128.24-5.15 128.24-6.93 128.24-8.7 128.24-10.8L128.24-10.8Q128.24-11.95 128.21-12.93 128.19-13.9 128.14-15.13 128.09-16.35 127.94-18.15L127.94-18.15 124.54-18.7 123.84-20.8Q124.99-20.85 126.91-20.95 128.84-21.05 130.89-21.25 132.94-21.45 134.44-21.7ZM141.14-21.8L141.14-21.8Q142.54-21.8 143.74-21.28 144.94-20.75 146.04-19.6L146.04-19.6Q145.74-18.1 145.49-17 145.24-15.9 144.91-14.83 144.59-13.75 144.14-12.2L144.14-12.2 141.34-12.2Q140.99-14.05 140.31-15.43 139.64-16.8 138.49-17.3L138.49-17.3Q137.24-16.5 136.11-14.33 134.99-12.15 134.99-8.55L134.99-8.55 133.04-11.45Q133.44-14.25 134.59-16.6 135.74-18.95 137.41-20.38 139.09-21.8 141.14-21.8ZM175.69-21.05L175.69-21.05 176.44-19.15 172.59-18.2Q169.24-10.95 166.06-4.03 162.89 2.9 160.89 9.5L160.89 9.5 165.49 11.05 164.69 13Q163.49 12.9 161.74 12.85 159.99 12.8 158.19 12.8L158.19 12.8Q156.99 12.8 155.46 12.83 153.94 12.85 152.59 12.9 151.24 12.95 150.44 13L150.44 13 149.64 11 155.49 9.4Q156.89 7.4 158.61 4.2 160.34 1 162.14-2.83 163.94-6.65 165.51-10.63 167.09-14.6 168.19-18.2L168.19-18.2 164.29-19.15 164.99-21.05Q166.54-21 167.76-20.98 168.99-20.95 170.29-20.95L170.29-20.95Q171.64-20.95 172.99-20.98 174.34-21 175.69-21.05ZM161.34-21L161.34-21 162.24-19.1 158.64-18.1Q159.24-16.25 159.74-14.85 160.24-13.45 160.76-12.18 161.29-10.9 162.01-9.35 162.74-7.8 163.79-5.65L163.79-5.65Q163.89-5.15 163.54-3.98 163.19-2.8 162.61-1.53 162.04-0.25 161.41 0.65 160.79 1.55 160.39 1.55L160.39 1.55Q158.99-1.55 157.84-4 156.69-6.45 155.64-8.68 154.59-10.9 153.44-13.15 152.29-15.4 150.94-18.1L150.94-18.1 147.14-19.1 147.84-21Q149.34-20.95 150.86-20.9 152.39-20.85 154.34-20.85L154.34-20.85Q156.44-20.85 158.24-20.9 160.04-20.95 161.34-21Z" opacity="1" transform="matrix(1,0,0,1,0,0)" fill="black" class="wordmark-text-0" id="SvgjsPath6183" stroke-width="7" stroke="black" stroke-linejoin="round"></path></svg></g></svg></g></svg></g></svg></g><g></g></svg></g></svg></g></svg></g></mask><g transform="matrix(1,0,0,1,39.55199999999999,73.95676623732528)"><svg viewBox="0 0 316.416 99.28646752534942" height="99.28646752534942" width="316.416"><g><svg viewBox="0 0 316.416 99.28646752534942" height="99.28646752534942" width="316.416"><g><svg viewBox="0 0 316.416 99.28646752534942" height="99.28646752534942" width="316.416"><g><svg viewBox="0 0 316.416 99.28646752534942" height="99.28646752534942" width="316.416"><g id="textblocktransform"><svg viewBox="0 0 316.416 99.28646752534942" height="99.28646752534942" width="316.416" id="textblock"><g><svg viewBox="0 0 316.416 99.28646752534942" height="99.28646752534942" width="316.416"><g transform="matrix(1,0,0,1,0,0)"><svg width="316.416" viewBox="-3 -41.25 183.44 58.25" height="99.28646752534942" data-palette-color="url(#d5ec0ea0-54b7-4055-a79d-c10e4b56a5a4)"></svg></g></svg></g></svg></g></svg></g><g></g></svg></g></svg></g></svg></g><g mask="url(#0972c6be-6847-46aa-9929-f281cec56fa8)"><g transform="matrix(2.7244444444444444, 0, 0, 2.7244444444444444, 100.23442444444443, 1)"><svg xmlns="http://www.w3.org/2000/svg" xmlns:xlink="http://www.w3.org/1999/xlink" version="1.1" x="0" y="0" viewBox="14.205 5 71.593 90" enable-background="new 0 0 100 100" xml:space="preserve" height="90" width="71.593" class="icon-none" data-fill-palette-color="accent" id="none"></svg></g></g></svg></g><defs></defs><mask id="b7783ff8-6945-42fb-811d-b4ca68f4a998"><g id="SvgjsG6195"><svg viewBox="0 0 395.52 247.2" height="247.2" width="395.52"><g><svg></svg></g><g><svg viewBox="0 0 395.52 247.2" height="247.2" width="395.52"><mask id="SvgjsMask6194"><rect width="640" height="400" fill="black"></rect><g transform="matrix(1,0,0,1,39.55199999999999,73.95676623732528)"><svg viewBox="0 0 316.416 99.28646752534942" height="99.28646752534942" width="316.416"><g><svg viewBox="0 0 316.416 99.28646752534942" height="99.28646752534942" width="316.416"><g><svg viewBox="0 0 316.416 99.28646752534942" height="99.28646752534942" width="316.416"><g><svg viewBox="0 0 316.416 99.28646752534942" height="99.28646752534942" width="316.416"><g id="SvgjsG6193"><svg viewBox="0 0 316.416 99.28646752534942" height="99.28646752534942" width="316.416" id="SvgjsSvg6192"><g><svg viewBox="0 0 316.416 99.28646752534942" height="99.28646752534942" width="316.416"><g transform="matrix(1,0,0,1,0,0)"><svg width="316.416" viewBox="-3 -41.25 183.44 58.25" height="99.28646752534942" data-palette-color="url(#d5ec0ea0-54b7-4055-a79d-c10e4b56a5a4)"><path d="M5.5-29.85L1-31.05 1.65-33Q3.45-32.9 5.15-32.85 6.85-32.8 9.2-32.8L9.2-32.8Q11.35-32.8 13.65-32.85 15.95-32.9 18.05-33L18.05-33 18.75-31.05 13.05-29.9Q13-25.75 13-22.4 13-19.05 13-15.65L13-15.65Q13-13.05 12.98-9.68 12.95-6.3 13.05-3.45L13.05-3.45Q16.15-3.1 18.82-3.3 21.5-3.5 23.65-4.45L23.65-4.45 24.8-10.5 28-10.5Q28-8.2 28.13-5.33 28.25-2.45 28.45 0L28.45 0Q22.35-0.1 17.6-0.13 12.85-0.15 9.4-0.15L9.4-0.15Q6.85-0.15 5.03-0.1 3.2-0.05 1.65 0L1.65 0 1.05-1.9 5.5-2.95Q5.6-6.9 5.68-9.83 5.75-12.75 5.75-15.15L5.75-15.15Q5.75-18.55 5.78-22.18 5.8-25.8 5.5-29.85L5.5-29.85ZM41.7-21.75L41.7-21.75Q41.65-18.85 41.57-16.2 41.5-13.55 41.5-11.4L41.5-11.4Q41.5-9.55 41.57-7.15 41.65-4.75 41.7-2.9L41.7-2.9 45.7-1.85 44.85 0Q43.55-0.1 42.22-0.13 40.9-0.15 38.25-0.15L38.25-0.15Q35.8-0.15 34.42-0.1 33.05-0.05 31.5 0L31.5 0 30.7-1.85 34.95-2.9Q35.05-5.4 35.07-7.25 35.1-9.1 35.05-11.3L35.05-11.3Q35.05-12.45 35.02-13.35 35-14.25 34.95-15.38 34.9-16.5 34.75-18.25L34.75-18.25 31.2-18.9 30.45-20.8Q31.6-20.85 33.42-20.95 35.25-21.05 37.4-21.25 39.55-21.45 41.7-21.75ZM37.95-25.45L37.95-25.45Q36.35-25.45 35.2-26.65 34.05-27.85 34.05-29.6L34.05-29.6Q34.05-31.25 35.2-32.45 36.35-33.65 37.95-33.65L37.95-33.65Q39.55-33.65 40.7-32.45 41.85-31.25 41.85-29.6L41.85-29.6Q41.85-27.85 40.7-26.65 39.55-25.45 37.95-25.45ZM57.65-37.25L57.65-37.25Q57.6-35.85 57.6-34.38 57.6-32.9 57.6-31.45L57.6-31.45Q57.6-28.85 57.62-26.75 57.65-24.65 57.67-22.58 57.7-20.5 57.7-17.9L57.7-17.9Q57.7-16.85 57.7-14.93 57.7-13 57.7-10.85 57.7-8.7 57.72-6.85 57.75-5 57.75-4.1L57.75-4.1 56.65-3.15Q56.1-2.5 55.27-1.68 54.45-0.85 53.6 0L53.6 0 50.5 0Q50.6-1.3 50.65-3.4 50.7-5.5 50.75-8 50.8-10.5 50.82-13.05 50.85-15.6 50.87-17.85 50.9-20.1 50.9-21.7L50.9-21.7Q50.9-24.65 50.75-27.4 50.6-30.15 50.25-33.55L50.25-33.55 46.25-34.2 45.8-36.35Q46.65-36.4 48.12-36.45 49.6-36.5 51.35-36.63 53.1-36.75 54.77-36.9 56.45-37.05 57.65-37.25ZM64.6-21.8L64.6-21.8Q67.35-21.8 69.2-20.28 71.05-18.75 72.02-16.32 73-13.9 73-11.2L73-11.2Q73-8.35 71.92-5.73 70.85-3.1 68.7-1.43 66.55 0.25 63.3 0.25L63.3 0.25Q60.55 0.25 58.47-1.3 56.4-2.85 54.9-5.25L54.9-5.25 56.2-7.35Q57-5.75 58.35-4.5 59.7-3.25 62-3.25L62-3.25Q63.35-3.25 64.3-4.28 65.25-5.3 65.75-6.95 66.25-8.6 66.25-10.4L66.25-10.4Q66.25-12.2 65.75-13.93 65.25-15.65 64.25-16.85 63.25-18.05 61.75-18.25L61.75-18.25Q60.2-18 58.95-15.93 57.7-13.85 57.7-10.2L57.7-10.2 56.25-14.55Q56.75-16.5 57.82-18.15 58.9-19.8 60.6-20.8 62.3-21.8 64.6-21.8ZM85.64-21.7L85.64-21.7Q85.69-20.55 85.79-19 85.89-17.45 85.99-16.18 86.09-14.9 86.09-14.45L86.09-14.45 86.44-3.1 91.39-1.85 90.64 0Q89.79-0.05 88.39-0.08 86.99-0.1 85.49-0.13 83.99-0.15 82.79-0.15L82.79-0.15Q81.24-0.15 79.44-0.1 77.64-0.05 76.14 0L76.14 0 75.39-1.85 79.44-2.9Q79.44-5.15 79.44-6.93 79.44-8.7 79.44-10.8L79.44-10.8Q79.44-11.95 79.42-12.93 79.39-13.9 79.34-15.13 79.29-16.35 79.14-18.15L79.14-18.15 75.74-18.7 75.04-20.8Q76.19-20.85 78.12-20.95 80.04-21.05 82.09-21.25 84.14-21.45 85.64-21.7ZM92.34-21.8L92.34-21.8Q93.74-21.8 94.94-21.28 96.14-20.75 97.24-19.6L97.24-19.6Q96.94-18.1 96.69-17 96.44-15.9 96.12-14.83 95.79-13.75 95.34-12.2L95.34-12.2 92.54-12.2Q92.19-14.05 91.52-15.43 90.84-16.8 89.69-17.3L89.69-17.3Q88.44-16.5 87.32-14.33 86.19-12.15 86.19-8.55L86.19-8.55 84.24-11.45Q84.64-14.25 85.79-16.6 86.94-18.95 88.62-20.38 90.29-21.8 92.34-21.8ZM112.04-21.8L112.04-21.8Q114.69-21.8 116.64-20.18 118.59-18.55 118.59-15.25L118.59-15.25Q118.59-13.1 118.52-11.65 118.44-10.2 118.37-9.08 118.29-7.95 118.29-6.75L118.29-6.75Q118.29-5.35 118.47-4.78 118.64-4.2 119.44-4.2L119.44-4.2Q120.14-4.2 121.54-4.85L121.54-4.85 122.44-2.65Q120.64-1.4 118.99-0.58 117.34 0.25 115.49 0.25L115.49 0.25Q113.94 0.25 112.79-0.98 111.64-2.2 111.64-4.85L111.64-4.85Q111.64-7.3 111.87-9.68 112.09-12.05 112.09-13.9L112.09-13.9Q112.09-15.45 111.64-16.4 111.19-17.35 110.14-17.7L110.14-17.7Q107.84-17.6 105.74-16.85 103.64-16.1 101.44-14.95L101.44-14.95 100.14-17.1Q102.99-19.2 105.92-20.5 108.84-21.8 112.04-21.8ZM115.59-13.95L115.59-13.95 112.59-9.8Q111.49-9.55 110.64-9.3 109.79-9.05 109.09-8.9L109.09-8.9Q107.39-8.55 106.74-8.03 106.09-7.5 106.09-6.2L106.09-6.2Q106.09-5.15 106.64-4.55 107.19-3.95 108.14-3.95L108.14-3.95Q109.29-3.95 111.06-5.03 112.84-6.1 114.09-7.75L114.09-7.75 115.04-5.7Q114.24-4.7 112.77-3.25 111.29-1.8 109.24-0.68 107.19 0.45 104.74 0.45L104.74 0.45Q103.49 0.45 102.31-0.23 101.14-0.9 100.37-2.25 99.59-3.6 99.59-5.6L99.59-5.6Q99.59-7.7 100.87-8.88 102.14-10.05 104.34-10.7 106.54-11.35 109.19-11.8L109.19-11.8Q110.99-12.1 112.54-12.58 114.09-13.05 115.59-13.95ZM134.44-21.7L134.44-21.7Q134.49-20.55 134.59-19 134.69-17.45 134.79-16.18 134.89-14.9 134.89-14.45L134.89-14.45 135.24-3.1 140.19-1.85 139.44 0Q138.59-0.05 137.19-0.08 135.79-0.1 134.29-0.13 132.79-0.15 131.59-0.15L131.59-0.15Q130.04-0.15 128.24-0.1 126.44-0.05 124.94 0L124.94 0 124.19-1.85 128.24-2.9Q128.24-5.15 128.24-6.93 128.24-8.7 128.24-10.8L128.24-10.8Q128.24-11.95 128.21-12.93 128.19-13.9 128.14-15.13 128.09-16.35 127.94-18.15L127.94-18.15 124.54-18.7 123.84-20.8Q124.99-20.85 126.91-20.95 128.84-21.05 130.89-21.25 132.94-21.45 134.44-21.7ZM141.14-21.8L141.14-21.8Q142.54-21.8 143.74-21.28 144.94-20.75 146.04-19.6L146.04-19.6Q145.74-18.1 145.49-17 145.24-15.9 144.91-14.83 144.59-13.75 144.14-12.2L144.14-12.2 141.34-12.2Q140.99-14.05 140.31-15.43 139.64-16.8 138.49-17.3L138.49-17.3Q137.24-16.5 136.11-14.33 134.99-12.15 134.99-8.55L134.99-8.55 133.04-11.45Q133.44-14.25 134.59-16.6 135.74-18.95 137.41-20.38 139.09-21.8 141.14-21.8ZM175.69-21.05L175.69-21.05 176.44-19.15 172.59-18.2Q169.24-10.95 166.06-4.03 162.89 2.9 160.89 9.5L160.89 9.5 165.49 11.05 164.69 13Q163.49 12.9 161.74 12.85 159.99 12.8 158.19 12.8L158.19 12.8Q156.99 12.8 155.46 12.83 153.94 12.85 152.59 12.9 151.24 12.95 150.44 13L150.44 13 149.64 11 155.49 9.4Q156.89 7.4 158.61 4.2 160.34 1 162.14-2.83 163.94-6.65 165.51-10.63 167.09-14.6 168.19-18.2L168.19-18.2 164.29-19.15 164.99-21.05Q166.54-21 167.76-20.98 168.99-20.95 170.29-20.95L170.29-20.95Q171.64-20.95 172.99-20.98 174.34-21 175.69-21.05ZM161.34-21L161.34-21 162.24-19.1 158.64-18.1Q159.24-16.25 159.74-14.85 160.24-13.45 160.76-12.18 161.29-10.9 162.01-9.35 162.74-7.8 163.79-5.65L163.79-5.65Q163.89-5.15 163.54-3.98 163.19-2.8 162.61-1.53 162.04-0.25 161.41 0.65 160.79 1.55 160.39 1.55L160.39 1.55Q158.99-1.55 157.84-4 156.69-6.45 155.64-8.68 154.59-10.9 153.44-13.15 152.29-15.4 150.94-18.1L150.94-18.1 147.14-19.1 147.84-21Q149.34-20.95 150.86-20.9 152.39-20.85 154.34-20.85L154.34-20.85Q156.44-20.85 158.24-20.9 160.04-20.95 161.34-21Z" opacity="1" transform="matrix(1,0,0,1,0,0)" fill="black" class="wordmark-text-0" id="SvgjsPath6191" stroke-width="7" stroke="black" stroke-linejoin="round"></path></svg></g></svg></g></svg></g></svg></g><g></g></svg></g></svg></g></svg></g></mask><g transform="matrix(1,0,0,1,39.55199999999999,73.95676623732528)"><svg viewBox="0 0 316.416 99.28646752534942" height="99.28646752534942" width="316.416"><g><svg viewBox="0 0 316.416 99.28646752534942" height="99.28646752534942" width="316.416"><g><svg viewBox="0 0 316.416 99.28646752534942" height="99.28646752534942" width="316.416"><g><svg viewBox="0 0 316.416 99.28646752534942" height="99.28646752534942" width="316.416"><g id="SvgjsG6190"><svg viewBox="0 0 316.416 99.28646752534942" height="99.28646752534942" width="316.416" id="SvgjsSvg6189"><g><svg viewBox="0 0 316.416 99.28646752534942" height="99.28646752534942" width="316.416"><g transform="matrix(1,0,0,1,0,0)"><svg width="316.416" viewBox="-3 -41.25 183.44 58.25" height="99.28646752534942" data-palette-color="url(#d5ec0ea0-54b7-4055-a79d-c10e4b56a5a4)"><path d="M5.5-29.85L1-31.05 1.65-33Q3.45-32.9 5.15-32.85 6.85-32.8 9.2-32.8L9.2-32.8Q11.35-32.8 13.65-32.85 15.95-32.9 18.05-33L18.05-33 18.75-31.05 13.05-29.9Q13-25.75 13-22.4 13-19.05 13-15.65L13-15.65Q13-13.05 12.98-9.68 12.95-6.3 13.05-3.45L13.05-3.45Q16.15-3.1 18.82-3.3 21.5-3.5 23.65-4.45L23.65-4.45 24.8-10.5 28-10.5Q28-8.2 28.13-5.33 28.25-2.45 28.45 0L28.45 0Q22.35-0.1 17.6-0.13 12.85-0.15 9.4-0.15L9.4-0.15Q6.85-0.15 5.03-0.1 3.2-0.05 1.65 0L1.65 0 1.05-1.9 5.5-2.95Q5.6-6.9 5.68-9.83 5.75-12.75 5.75-15.15L5.75-15.15Q5.75-18.55 5.78-22.18 5.8-25.8 5.5-29.85L5.5-29.85ZM41.7-21.75L41.7-21.75Q41.65-18.85 41.57-16.2 41.5-13.55 41.5-11.4L41.5-11.4Q41.5-9.55 41.57-7.15 41.65-4.75 41.7-2.9L41.7-2.9 45.7-1.85 44.85 0Q43.55-0.1 42.22-0.13 40.9-0.15 38.25-0.15L38.25-0.15Q35.8-0.15 34.42-0.1 33.05-0.05 31.5 0L31.5 0 30.7-1.85 34.95-2.9Q35.05-5.4 35.07-7.25 35.1-9.1 35.05-11.3L35.05-11.3Q35.05-12.45 35.02-13.35 35-14.25 34.95-15.38 34.9-16.5 34.75-18.25L34.75-18.25 31.2-18.9 30.45-20.8Q31.6-20.85 33.42-20.95 35.25-21.05 37.4-21.25 39.55-21.45 41.7-21.75ZM37.95-25.45L37.95-25.45Q36.35-25.45 35.2-26.65 34.05-27.85 34.05-29.6L34.05-29.6Q34.05-31.25 35.2-32.45 36.35-33.65 37.95-33.65L37.95-33.65Q39.55-33.65 40.7-32.45 41.85-31.25 41.85-29.6L41.85-29.6Q41.85-27.85 40.7-26.65 39.55-25.45 37.95-25.45ZM57.65-37.25L57.65-37.25Q57.6-35.85 57.6-34.38 57.6-32.9 57.6-31.45L57.6-31.45Q57.6-28.85 57.62-26.75 57.65-24.65 57.67-22.58 57.7-20.5 57.7-17.9L57.7-17.9Q57.7-16.85 57.7-14.93 57.7-13 57.7-10.85 57.7-8.7 57.72-6.85 57.75-5 57.75-4.1L57.75-4.1 56.65-3.15Q56.1-2.5 55.27-1.68 54.45-0.85 53.6 0L53.6 0 50.5 0Q50.6-1.3 50.65-3.4 50.7-5.5 50.75-8 50.8-10.5 50.82-13.05 50.85-15.6 50.87-17.85 50.9-20.1 50.9-21.7L50.9-21.7Q50.9-24.65 50.75-27.4 50.6-30.15 50.25-33.55L50.25-33.55 46.25-34.2 45.8-36.35Q46.65-36.4 48.12-36.45 49.6-36.5 51.35-36.63 53.1-36.75 54.77-36.9 56.45-37.05 57.65-37.25ZM64.6-21.8L64.6-21.8Q67.35-21.8 69.2-20.28 71.05-18.75 72.02-16.32 73-13.9 73-11.2L73-11.2Q73-8.35 71.92-5.73 70.85-3.1 68.7-1.43 66.55 0.25 63.3 0.25L63.3 0.25Q60.55 0.25 58.47-1.3 56.4-2.85 54.9-5.25L54.9-5.25 56.2-7.35Q57-5.75 58.35-4.5 59.7-3.25 62-3.25L62-3.25Q63.35-3.25 64.3-4.28 65.25-5.3 65.75-6.95 66.25-8.6 66.25-10.4L66.25-10.4Q66.25-12.2 65.75-13.93 65.25-15.65 64.25-16.85 63.25-18.05 61.75-18.25L61.75-18.25Q60.2-18 58.95-15.93 57.7-13.85 57.7-10.2L57.7-10.2 56.25-14.55Q56.75-16.5 57.82-18.15 58.9-19.8 60.6-20.8 62.3-21.8 64.6-21.8ZM85.64-21.7L85.64-21.7Q85.69-20.55 85.79-19 85.89-17.45 85.99-16.18 86.09-14.9 86.09-14.45L86.09-14.45 86.44-3.1 91.39-1.85 90.64 0Q89.79-0.05 88.39-0.08 86.99-0.1 85.49-0.13 83.99-0.15 82.79-0.15L82.79-0.15Q81.24-0.15 79.44-0.1 77.64-0.05 76.14 0L76.14 0 75.39-1.85 79.44-2.9Q79.44-5.15 79.44-6.93 79.44-8.7 79.44-10.8L79.44-10.8Q79.44-11.95 79.42-12.93 79.39-13.9 79.34-15.13 79.29-16.35 79.14-18.15L79.14-18.15 75.74-18.7 75.04-20.8Q76.19-20.85 78.12-20.95 80.04-21.05 82.09-21.25 84.14-21.45 85.64-21.7ZM92.34-21.8L92.34-21.8Q93.74-21.8 94.94-21.28 96.14-20.75 97.24-19.6L97.24-19.6Q96.94-18.1 96.69-17 96.44-15.9 96.12-14.83 95.79-13.75 95.34-12.2L95.34-12.2 92.54-12.2Q92.19-14.05 91.52-15.43 90.84-16.8 89.69-17.3L89.69-17.3Q88.44-16.5 87.32-14.33 86.19-12.15 86.19-8.55L86.19-8.55 84.24-11.45Q84.64-14.25 85.79-16.6 86.94-18.95 88.62-20.38 90.29-21.8 92.34-21.8ZM112.04-21.8L112.04-21.8Q114.69-21.8 116.64-20.18 118.59-18.55 118.59-15.25L118.59-15.25Q118.59-13.1 118.52-11.65 118.44-10.2 118.37-9.08 118.29-7.95 118.29-6.75L118.29-6.75Q118.29-5.35 118.47-4.78 118.64-4.2 119.44-4.2L119.44-4.2Q120.14-4.2 121.54-4.85L121.54-4.85 122.44-2.65Q120.64-1.4 118.99-0.58 117.34 0.25 115.49 0.25L115.49 0.25Q113.94 0.25 112.79-0.98 111.64-2.2 111.64-4.85L111.64-4.85Q111.64-7.3 111.87-9.68 112.09-12.05 112.09-13.9L112.09-13.9Q112.09-15.45 111.64-16.4 111.19-17.35 110.14-17.7L110.14-17.7Q107.84-17.6 105.74-16.85 103.64-16.1 101.44-14.95L101.44-14.95 100.14-17.1Q102.99-19.2 105.92-20.5 108.84-21.8 112.04-21.8ZM115.59-13.95L115.59-13.95 112.59-9.8Q111.49-9.55 110.64-9.3 109.79-9.05 109.09-8.9L109.09-8.9Q107.39-8.55 106.74-8.03 106.09-7.5 106.09-6.2L106.09-6.2Q106.09-5.15 106.64-4.55 107.19-3.95 108.14-3.95L108.14-3.95Q109.29-3.95 111.06-5.03 112.84-6.1 114.09-7.75L114.09-7.75 115.04-5.7Q114.24-4.7 112.77-3.25 111.29-1.8 109.24-0.68 107.19 0.45 104.74 0.45L104.74 0.45Q103.49 0.45 102.31-0.23 101.14-0.9 100.37-2.25 99.59-3.6 99.59-5.6L99.59-5.6Q99.59-7.7 100.87-8.88 102.14-10.05 104.34-10.7 106.54-11.35 109.19-11.8L109.19-11.8Q110.99-12.1 112.54-12.58 114.09-13.05 115.59-13.95ZM134.44-21.7L134.44-21.7Q134.49-20.55 134.59-19 134.69-17.45 134.79-16.18 134.89-14.9 134.89-14.45L134.89-14.45 135.24-3.1 140.19-1.85 139.44 0Q138.59-0.05 137.19-0.08 135.79-0.1 134.29-0.13 132.79-0.15 131.59-0.15L131.59-0.15Q130.04-0.15 128.24-0.1 126.44-0.05 124.94 0L124.94 0 124.19-1.85 128.24-2.9Q128.24-5.15 128.24-6.93 128.24-8.7 128.24-10.8L128.24-10.8Q128.24-11.95 128.21-12.93 128.19-13.9 128.14-15.13 128.09-16.35 127.94-18.15L127.94-18.15 124.54-18.7 123.84-20.8Q124.99-20.85 126.91-20.95 128.84-21.05 130.89-21.25 132.94-21.45 134.44-21.7ZM141.14-21.8L141.14-21.8Q142.54-21.8 143.74-21.28 144.94-20.75 146.04-19.6L146.04-19.6Q145.74-18.1 145.49-17 145.24-15.9 144.91-14.83 144.59-13.75 144.14-12.2L144.14-12.2 141.34-12.2Q140.99-14.05 140.31-15.43 139.64-16.8 138.49-17.3L138.49-17.3Q137.24-16.5 136.11-14.33 134.99-12.15 134.99-8.55L134.99-8.55 133.04-11.45Q133.44-14.25 134.59-16.6 135.74-18.95 137.41-20.38 139.09-21.8 141.14-21.8ZM175.69-21.05L175.69-21.05 176.44-19.15 172.59-18.2Q169.24-10.95 166.06-4.03 162.89 2.9 160.89 9.5L160.89 9.5 165.49 11.05 164.69 13Q163.49 12.9 161.74 12.85 159.99 12.8 158.19 12.8L158.19 12.8Q156.99 12.8 155.46 12.83 153.94 12.85 152.59 12.9 151.24 12.95 150.44 13L150.44 13 149.64 11 155.49 9.4Q156.89 7.4 158.61 4.2 160.34 1 162.14-2.83 163.94-6.65 165.51-10.63 167.09-14.6 168.19-18.2L168.19-18.2 164.29-19.15 164.99-21.05Q166.54-21 167.76-20.98 168.99-20.95 170.29-20.95L170.29-20.95Q171.64-20.95 172.99-20.98 174.34-21 175.69-21.05ZM161.34-21L161.34-21 162.24-19.1 158.64-18.1Q159.24-16.25 159.74-14.85 160.24-13.45 160.76-12.18 161.29-10.9 162.01-9.35 162.74-7.8 163.79-5.65L163.79-5.65Q163.89-5.15 163.54-3.98 163.19-2.8 162.61-1.53 162.04-0.25 161.41 0.65 160.79 1.55 160.39 1.55L160.39 1.55Q158.99-1.55 157.84-4 156.69-6.45 155.64-8.68 154.59-10.9 153.44-13.15 152.29-15.4 150.94-18.1L150.94-18.1 147.14-19.1 147.84-21Q149.34-20.95 150.86-20.9 152.39-20.85 154.34-20.85L154.34-20.85Q156.44-20.85 158.24-20.9 160.04-20.95 161.34-21Z" opacity="1" transform="matrix(1,0,0,1,0,0)" fill="white" class="wordmark-text-0" id="SvgjsPath6188"></path></svg></g></svg></g></svg></g></svg></g><g></g></svg></g></svg></g></svg></g><g mask="url(#0972c6be-6847-46aa-9929-f281cec56fa8)"><g transform="matrix(2.7244444444444444, 0, 0, 2.7244444444444444, 100.23442444444443, 1)"><svg xmlns="http://www.w3.org/2000/svg" xmlns:xlink="http://www.w3.org/1999/xlink" version="1.1" x="0" y="0" viewBox="14.205 5 71.593 90" enable-background="new 0 0 100 100" xml:space="preserve" height="90" width="71.593" class="icon-none" data-fill-palette-color="accent" id="SvgjsSvg6187"><g fill="black"><path d="M84.392 64.521C80.512 70.8 68.967 75.558 54.799 76.445 54.07 76.492 53.333 76.525 52.591 76.549L52.194 76.562A75 75 0 0 1 50.005 76.596H49.997A88 88 0 0 1 47.411 76.549 72 72 0 0 1 45.204 76.445C31.035 75.558 19.489 70.801 15.61 64.521 14.695 63.043 14.208 63.835 14.208 64.568V74.806C14.208 81.035 20.538 87.407 30.145 91.283L30.144 91.285 30.251 91.325C30.855 91.566 31.474 91.797 32.103 92.018 32.238 92.066 32.371 92.114 32.506 92.159 33.188 92.393 33.881 92.617 34.589 92.827L34.691 92.855A53 53 0 0 0 37.205 93.515C37.936 93.69 38.675 93.853 39.43 93.996 39.464 94.004 39.498 94.01 39.531 94.016A53 53 0 0 0 41.698 94.38C41.883 94.407 42.068 94.435 42.254 94.461 43.023 94.567 43.796 94.663 44.583 94.739L44.677 94.747C45.43 94.817 46.193 94.87 46.961 94.911 47.166 94.924 47.37 94.931 47.576 94.941 48.374 94.976 49.181 95 49.996 95H50.006C50.821 95 51.628 94.978 52.431 94.942L53.046 94.912C53.814 94.871 54.576 94.818 55.329 94.748L55.423 94.74A58 58 0 0 0 57.753 94.462C57.94 94.436 58.124 94.408 58.309 94.381 59.039 94.272 59.763 94.153 60.476 94.017 60.509 94.011 60.543 94.005 60.578 93.997A51 51 0 0 0 62.802 93.516C62.959 93.479 63.115 93.44 63.272 93.401 63.965 93.231 64.648 93.05 65.318 92.854 65.351 92.844 65.384 92.835 65.418 92.828 66.127 92.618 66.819 92.395 67.503 92.16 67.637 92.115 67.769 92.067 67.901 92.02 68.531 91.797 69.154 91.567 69.759 91.324 69.793 91.31 69.829 91.3 69.862 91.286L69.861 91.284C79.468 87.407 85.798 81.035 85.798 74.807V64.569C85.794 63.836 85.307 63.045 84.392 64.521" fill="black"></path><path d="M85.748 17.769C84.789 10.656 69.154 5 50.001 5H49.999C30.228 5 14.205 11.027 14.205 18.461V24.901C14.205 32.787 30.227 39.179 49.999 39.179H50.001C69.154 39.179 84.789 33.18 85.748 25.636 85.779 25.392 85.796 25.148 85.796 24.901V18.461A6 6 0 0 0 85.748 17.769" fill="black"></path><path d="M84.454 38.365C81.102 43.235 71.779 47.075 59.94 48.477A83 83 0 0 1 55.21 48.895C55.138 48.899 55.064 48.905 54.989 48.908 54.227 48.952 53.458 48.986 52.68 49.01L52.384 49.019C51.596 49.04 50.803 49.053 50.001 49.053L49.914 49.052C49.166 49.052 48.425 49.039 47.689 49.021L47.273 49.009A84 84 0 0 1 45.046 48.91C44.944 48.905 44.844 48.897 44.744 48.891A83 83 0 0 1 40.145 48.485C28.265 47.092 18.905 43.246 15.547 38.365 14.673 37.094 14.205 37.784 14.205 38.361V50.407C14.205 59.371 30.058 66.642 49.68 66.721L50.319 66.718V66.721L50.529 66.718 50.92 66.716 50.925 66.71C70.266 66.486 85.795 59.277 85.795 50.406V38.36C85.794 37.784 85.326 37.094 84.454 38.365" fill="black"></path></g></svg></g></g></svg></g><defs><mask></mask></defs></svg><rect width="395.52" height="247.2" fill="black" stroke="none" visibility="hidden"></rect></g></mask><linearGradient x1="0" x2="1" y1="0.578" y2="0.595" id="d5ec0ea0-54b7-4055-a79d-c10e4b56a5a4"><stop stop-color="#6ee2f5" offset="0"></stop><stop stop-color="#6454f0" offset="1"></stop></linearGradient><rect width="395.52" height="247.2" fill="#000000" mask="url(#b7783ff8-6945-42fb-811d-b4ca68f4a998)" data-fill-palette-color="primary"></rect><mask id="89e32d71-3e78-47ef-b083-403f6d659c46"><g id="SvgjsG6230"><svg viewBox="0 0 395.52 247.2" height="247.2" width="395.52"><g><svg></svg></g><g><svg viewBox="0 0 395.52 247.2" height="247.2" width="395.52"><mask id="SvgjsMask6229"><rect width="640" height="400" fill="black"></rect><g transform="matrix(1,0,0,1,39.55199999999999,73.95676623732528)"><svg viewBox="0 0 316.416 99.28646752534942" height="99.28646752534942" width="316.416"><g><svg viewBox="0 0 316.416 99.28646752534942" height="99.28646752534942" width="316.416"><g><svg viewBox="0 0 316.416 99.28646752534942" height="99.28646752534942" width="316.416"><g><svg viewBox="0 0 316.416 99.28646752534942" height="99.28646752534942" width="316.416"><g id="SvgjsG6228"><svg viewBox="0 0 316.416 99.28646752534942" height="99.28646752534942" width="316.416" id="SvgjsSvg6227"><g><svg viewBox="0 0 316.416 99.28646752534942" height="99.28646752534942" width="316.416"><g transform="matrix(1,0,0,1,0,0)"><svg width="316.416" viewBox="-3 -41.25 183.44 58.25" height="99.28646752534942" data-palette-color="url(#d5ec0ea0-54b7-4055-a79d-c10e4b56a5a4)"><path d="M5.5-29.85L1-31.05 1.65-33Q3.45-32.9 5.15-32.85 6.85-32.8 9.2-32.8L9.2-32.8Q11.35-32.8 13.65-32.85 15.95-32.9 18.05-33L18.05-33 18.75-31.05 13.05-29.9Q13-25.75 13-22.4 13-19.05 13-15.65L13-15.65Q13-13.05 12.98-9.68 12.95-6.3 13.05-3.45L13.05-3.45Q16.15-3.1 18.82-3.3 21.5-3.5 23.65-4.45L23.65-4.45 24.8-10.5 28-10.5Q28-8.2 28.13-5.33 28.25-2.45 28.45 0L28.45 0Q22.35-0.1 17.6-0.13 12.85-0.15 9.4-0.15L9.4-0.15Q6.85-0.15 5.03-0.1 3.2-0.05 1.65 0L1.65 0 1.05-1.9 5.5-2.95Q5.6-6.9 5.68-9.83 5.75-12.75 5.75-15.15L5.75-15.15Q5.75-18.55 5.78-22.18 5.8-25.8 5.5-29.85L5.5-29.85ZM41.7-21.75L41.7-21.75Q41.65-18.85 41.57-16.2 41.5-13.55 41.5-11.4L41.5-11.4Q41.5-9.55 41.57-7.15 41.65-4.75 41.7-2.9L41.7-2.9 45.7-1.85 44.85 0Q43.55-0.1 42.22-0.13 40.9-0.15 38.25-0.15L38.25-0.15Q35.8-0.15 34.42-0.1 33.05-0.05 31.5 0L31.5 0 30.7-1.85 34.95-2.9Q35.05-5.4 35.07-7.25 35.1-9.1 35.05-11.3L35.05-11.3Q35.05-12.45 35.02-13.35 35-14.25 34.95-15.38 34.9-16.5 34.75-18.25L34.75-18.25 31.2-18.9 30.45-20.8Q31.6-20.85 33.42-20.95 35.25-21.05 37.4-21.25 39.55-21.45 41.7-21.75ZM37.95-25.45L37.95-25.45Q36.35-25.45 35.2-26.65 34.05-27.85 34.05-29.6L34.05-29.6Q34.05-31.25 35.2-32.45 36.35-33.65 37.95-33.65L37.95-33.65Q39.55-33.65 40.7-32.45 41.85-31.25 41.85-29.6L41.85-29.6Q41.85-27.85 40.7-26.65 39.55-25.45 37.95-25.45ZM57.65-37.25L57.65-37.25Q57.6-35.85 57.6-34.38 57.6-32.9 57.6-31.45L57.6-31.45Q57.6-28.85 57.62-26.75 57.65-24.65 57.67-22.58 57.7-20.5 57.7-17.9L57.7-17.9Q57.7-16.85 57.7-14.93 57.7-13 57.7-10.85 57.7-8.7 57.72-6.85 57.75-5 57.75-4.1L57.75-4.1 56.65-3.15Q56.1-2.5 55.27-1.68 54.45-0.85 53.6 0L53.6 0 50.5 0Q50.6-1.3 50.65-3.4 50.7-5.5 50.75-8 50.8-10.5 50.82-13.05 50.85-15.6 50.87-17.85 50.9-20.1 50.9-21.7L50.9-21.7Q50.9-24.65 50.75-27.4 50.6-30.15 50.25-33.55L50.25-33.55 46.25-34.2 45.8-36.35Q46.65-36.4 48.12-36.45 49.6-36.5 51.35-36.63 53.1-36.75 54.77-36.9 56.45-37.05 57.65-37.25ZM64.6-21.8L64.6-21.8Q67.35-21.8 69.2-20.28 71.05-18.75 72.02-16.32 73-13.9 73-11.2L73-11.2Q73-8.35 71.92-5.73 70.85-3.1 68.7-1.43 66.55 0.25 63.3 0.25L63.3 0.25Q60.55 0.25 58.47-1.3 56.4-2.85 54.9-5.25L54.9-5.25 56.2-7.35Q57-5.75 58.35-4.5 59.7-3.25 62-3.25L62-3.25Q63.35-3.25 64.3-4.28 65.25-5.3 65.75-6.95 66.25-8.6 66.25-10.4L66.25-10.4Q66.25-12.2 65.75-13.93 65.25-15.65 64.25-16.85 63.25-18.05 61.75-18.25L61.75-18.25Q60.2-18 58.95-15.93 57.7-13.85 57.7-10.2L57.7-10.2 56.25-14.55Q56.75-16.5 57.82-18.15 58.9-19.8 60.6-20.8 62.3-21.8 64.6-21.8ZM85.64-21.7L85.64-21.7Q85.69-20.55 85.79-19 85.89-17.45 85.99-16.18 86.09-14.9 86.09-14.45L86.09-14.45 86.44-3.1 91.39-1.85 90.64 0Q89.79-0.05 88.39-0.08 86.99-0.1 85.49-0.13 83.99-0.15 82.79-0.15L82.79-0.15Q81.24-0.15 79.44-0.1 77.64-0.05 76.14 0L76.14 0 75.39-1.85 79.44-2.9Q79.44-5.15 79.44-6.93 79.44-8.7 79.44-10.8L79.44-10.8Q79.44-11.95 79.42-12.93 79.39-13.9 79.34-15.13 79.29-16.35 79.14-18.15L79.14-18.15 75.74-18.7 75.04-20.8Q76.19-20.85 78.12-20.95 80.04-21.05 82.09-21.25 84.14-21.45 85.64-21.7ZM92.34-21.8L92.34-21.8Q93.74-21.8 94.94-21.28 96.14-20.75 97.24-19.6L97.24-19.6Q96.94-18.1 96.69-17 96.44-15.9 96.12-14.83 95.79-13.75 95.34-12.2L95.34-12.2 92.54-12.2Q92.19-14.05 91.52-15.43 90.84-16.8 89.69-17.3L89.69-17.3Q88.44-16.5 87.32-14.33 86.19-12.15 86.19-8.55L86.19-8.55 84.24-11.45Q84.64-14.25 85.79-16.6 86.94-18.95 88.62-20.38 90.29-21.8 92.34-21.8ZM112.04-21.8L112.04-21.8Q114.69-21.8 116.64-20.18 118.59-18.55 118.59-15.25L118.59-15.25Q118.59-13.1 118.52-11.65 118.44-10.2 118.37-9.08 118.29-7.95 118.29-6.75L118.29-6.75Q118.29-5.35 118.47-4.78 118.64-4.2 119.44-4.2L119.44-4.2Q120.14-4.2 121.54-4.85L121.54-4.85 122.44-2.65Q120.64-1.4 118.99-0.58 117.34 0.25 115.49 0.25L115.49 0.25Q113.94 0.25 112.79-0.98 111.64-2.2 111.64-4.85L111.64-4.85Q111.64-7.3 111.87-9.68 112.09-12.05 112.09-13.9L112.09-13.9Q112.09-15.45 111.64-16.4 111.19-17.35 110.14-17.7L110.14-17.7Q107.84-17.6 105.74-16.85 103.64-16.1 101.44-14.95L101.44-14.95 100.14-17.1Q102.99-19.2 105.92-20.5 108.84-21.8 112.04-21.8ZM115.59-13.95L115.59-13.95 112.59-9.8Q111.49-9.55 110.64-9.3 109.79-9.05 109.09-8.9L109.09-8.9Q107.39-8.55 106.74-8.03 106.09-7.5 106.09-6.2L106.09-6.2Q106.09-5.15 106.64-4.55 107.19-3.95 108.14-3.95L108.14-3.95Q109.29-3.95 111.06-5.03 112.84-6.1 114.09-7.75L114.09-7.75 115.04-5.7Q114.24-4.7 112.77-3.25 111.29-1.8 109.24-0.68 107.19 0.45 104.74 0.45L104.74 0.45Q103.49 0.45 102.31-0.23 101.14-0.9 100.37-2.25 99.59-3.6 99.59-5.6L99.59-5.6Q99.59-7.7 100.87-8.88 102.14-10.05 104.34-10.7 106.54-11.35 109.19-11.8L109.19-11.8Q110.99-12.1 112.54-12.58 114.09-13.05 115.59-13.95ZM134.44-21.7L134.44-21.7Q134.49-20.55 134.59-19 134.69-17.45 134.79-16.18 134.89-14.9 134.89-14.45L134.89-14.45 135.24-3.1 140.19-1.85 139.44 0Q138.59-0.05 137.19-0.08 135.79-0.1 134.29-0.13 132.79-0.15 131.59-0.15L131.59-0.15Q130.04-0.15 128.24-0.1 126.44-0.05 124.94 0L124.94 0 124.19-1.85 128.24-2.9Q128.24-5.15 128.24-6.93 128.24-8.7 128.24-10.8L128.24-10.8Q128.24-11.95 128.21-12.93 128.19-13.9 128.14-15.13 128.09-16.35 127.94-18.15L127.94-18.15 124.54-18.7 123.84-20.8Q124.99-20.85 126.91-20.95 128.84-21.05 130.89-21.25 132.94-21.45 134.44-21.7ZM141.14-21.8L141.14-21.8Q142.54-21.8 143.74-21.28 144.94-20.75 146.04-19.6L146.04-19.6Q145.74-18.1 145.49-17 145.24-15.9 144.91-14.83 144.59-13.75 144.14-12.2L144.14-12.2 141.34-12.2Q140.99-14.05 140.31-15.43 139.64-16.8 138.49-17.3L138.49-17.3Q137.24-16.5 136.11-14.33 134.99-12.15 134.99-8.55L134.99-8.55 133.04-11.45Q133.44-14.25 134.59-16.6 135.74-18.95 137.41-20.38 139.09-21.8 141.14-21.8ZM175.69-21.05L175.69-21.05 176.44-19.15 172.59-18.2Q169.24-10.95 166.06-4.03 162.89 2.9 160.89 9.5L160.89 9.5 165.49 11.05 164.69 13Q163.49 12.9 161.74 12.85 159.99 12.8 158.19 12.8L158.19 12.8Q156.99 12.8 155.46 12.83 153.94 12.85 152.59 12.9 151.24 12.95 150.44 13L150.44 13 149.64 11 155.49 9.4Q156.89 7.4 158.61 4.2 160.34 1 162.14-2.83 163.94-6.65 165.51-10.63 167.09-14.6 168.19-18.2L168.19-18.2 164.29-19.15 164.99-21.05Q166.54-21 167.76-20.98 168.99-20.95 170.29-20.95L170.29-20.95Q171.64-20.95 172.99-20.98 174.34-21 175.69-21.05ZM161.34-21L161.34-21 162.24-19.1 158.64-18.1Q159.24-16.25 159.74-14.85 160.24-13.45 160.76-12.18 161.29-10.9 162.01-9.35 162.74-7.8 163.79-5.65L163.79-5.65Q163.89-5.15 163.54-3.98 163.19-2.8 162.61-1.53 162.04-0.25 161.41 0.65 160.79 1.55 160.39 1.55L160.39 1.55Q158.99-1.55 157.84-4 156.69-6.45 155.64-8.68 154.59-10.9 153.44-13.15 152.29-15.4 150.94-18.1L150.94-18.1 147.14-19.1 147.84-21Q149.34-20.95 150.86-20.9 152.39-20.85 154.34-20.85L154.34-20.85Q156.44-20.85 158.24-20.9 160.04-20.95 161.34-21Z" opacity="1" transform="matrix(1,0,0,1,0,0)" fill="black" class="wordmark-text-0" id="SvgjsPath6226" stroke-width="7" stroke="black" stroke-linejoin="round"></path></svg></g></svg></g></svg></g></svg></g><g></g></svg></g></svg></g></svg></g></mask><g transform="matrix(1,0,0,1,39.55199999999999,73.95676623732528)"><svg viewBox="0 0 316.416 99.28646752534942" height="99.28646752534942" width="316.416"><g><svg viewBox="0 0 316.416 99.28646752534942" height="99.28646752534942" width="316.416"><g><svg viewBox="0 0 316.416 99.28646752534942" height="99.28646752534942" width="316.416"><g><svg viewBox="0 0 316.416 99.28646752534942" height="99.28646752534942" width="316.416"><g id="SvgjsG6225"><svg viewBox="0 0 316.416 99.28646752534942" height="99.28646752534942" width="316.416" id="SvgjsSvg6224"><g><svg viewBox="0 0 316.416 99.28646752534942" height="99.28646752534942" width="316.416"><g transform="matrix(1,0,0,1,0,0)"><svg width="316.416" viewBox="-3 -41.25 183.44 58.25" height="99.28646752534942" data-palette-color="url(#d5ec0ea0-54b7-4055-a79d-c10e4b56a5a4)"></svg></g></svg></g></svg></g></svg></g><g></g></svg></g></svg></g></svg></g><g mask="url(#0972c6be-6847-46aa-9929-f281cec56fa8)"><g transform="matrix(2.7244444444444444, 0, 0, 2.7244444444444444, 100.23442444444443, 1)"><svg xmlns="http://www.w3.org/2000/svg" xmlns:xlink="http://www.w3.org/1999/xlink" version="1.1" x="0" y="0" viewBox="14.205 5 71.593 90" enable-background="new 0 0 100 100" xml:space="preserve" height="90" width="71.593" class="icon-none" data-fill-palette-color="accent" id="SvgjsSvg6223"><g fill="white"><path d="M84.392 64.521C80.512 70.8 68.967 75.558 54.799 76.445 54.07 76.492 53.333 76.525 52.591 76.549L52.194 76.562A75 75 0 0 1 50.005 76.596H49.997A88 88 0 0 1 47.411 76.549 72 72 0 0 1 45.204 76.445C31.035 75.558 19.489 70.801 15.61 64.521 14.695 63.043 14.208 63.835 14.208 64.568V74.806C14.208 81.035 20.538 87.407 30.145 91.283L30.144 91.285 30.251 91.325C30.855 91.566 31.474 91.797 32.103 92.018 32.238 92.066 32.371 92.114 32.506 92.159 33.188 92.393 33.881 92.617 34.589 92.827L34.691 92.855A53 53 0 0 0 37.205 93.515C37.936 93.69 38.675 93.853 39.43 93.996 39.464 94.004 39.498 94.01 39.531 94.016A53 53 0 0 0 41.698 94.38C41.883 94.407 42.068 94.435 42.254 94.461 43.023 94.567 43.796 94.663 44.583 94.739L44.677 94.747C45.43 94.817 46.193 94.87 46.961 94.911 47.166 94.924 47.37 94.931 47.576 94.941 48.374 94.976 49.181 95 49.996 95H50.006C50.821 95 51.628 94.978 52.431 94.942L53.046 94.912C53.814 94.871 54.576 94.818 55.329 94.748L55.423 94.74A58 58 0 0 0 57.753 94.462C57.94 94.436 58.124 94.408 58.309 94.381 59.039 94.272 59.763 94.153 60.476 94.017 60.509 94.011 60.543 94.005 60.578 93.997A51 51 0 0 0 62.802 93.516C62.959 93.479 63.115 93.44 63.272 93.401 63.965 93.231 64.648 93.05 65.318 92.854 65.351 92.844 65.384 92.835 65.418 92.828 66.127 92.618 66.819 92.395 67.503 92.16 67.637 92.115 67.769 92.067 67.901 92.02 68.531 91.797 69.154 91.567 69.759 91.324 69.793 91.31 69.829 91.3 69.862 91.286L69.861 91.284C79.468 87.407 85.798 81.035 85.798 74.807V64.569C85.794 63.836 85.307 63.045 84.392 64.521" fill="white"></path><path d="M85.748 17.769C84.789 10.656 69.154 5 50.001 5H49.999C30.228 5 14.205 11.027 14.205 18.461V24.901C14.205 32.787 30.227 39.179 49.999 39.179H50.001C69.154 39.179 84.789 33.18 85.748 25.636 85.779 25.392 85.796 25.148 85.796 24.901V18.461A6 6 0 0 0 85.748 17.769" fill="white"></path><path d="M84.454 38.365C81.102 43.235 71.779 47.075 59.94 48.477A83 83 0 0 1 55.21 48.895C55.138 48.899 55.064 48.905 54.989 48.908 54.227 48.952 53.458 48.986 52.68 49.01L52.384 49.019C51.596 49.04 50.803 49.053 50.001 49.053L49.914 49.052C49.166 49.052 48.425 49.039 47.689 49.021L47.273 49.009A84 84 0 0 1 45.046 48.91C44.944 48.905 44.844 48.897 44.744 48.891A83 83 0 0 1 40.145 48.485C28.265 47.092 18.905 43.246 15.547 38.365 14.673 37.094 14.205 37.784 14.205 38.361V50.407C14.205 59.371 30.058 66.642 49.68 66.721L50.319 66.718V66.721L50.529 66.718 50.92 66.716 50.925 66.71C70.266 66.486 85.795 59.277 85.795 50.406V38.36C85.794 37.784 85.326 37.094 84.454 38.365" fill="white"></path></g></svg></g></g></svg></g><defs><mask></mask></defs><mask><g id="SvgjsG6222"><svg viewBox="0 0 395.52 247.2" height="247.2" width="395.52"><g><svg></svg></g><g><svg viewBox="0 0 395.52 247.2" height="247.2" width="395.52"><mask id="SvgjsMask6221"><rect width="640" height="400" fill="black"></rect><g transform="matrix(1,0,0,1,39.55199999999999,73.95676623732528)"><svg viewBox="0 0 316.416 99.28646752534942" height="99.28646752534942" width="316.416"><g><svg viewBox="0 0 316.416 99.28646752534942" height="99.28646752534942" width="316.416"><g><svg viewBox="0 0 316.416 99.28646752534942" height="99.28646752534942" width="316.416"><g><svg viewBox="0 0 316.416 99.28646752534942" height="99.28646752534942" width="316.416"><g id="SvgjsG6220"><svg viewBox="0 0 316.416 99.28646752534942" height="99.28646752534942" width="316.416" id="SvgjsSvg6219"><g><svg viewBox="0 0 316.416 99.28646752534942" height="99.28646752534942" width="316.416"><g transform="matrix(1,0,0,1,0,0)"><svg width="316.416" viewBox="-3 -41.25 183.44 58.25" height="99.28646752534942" data-palette-color="url(#d5ec0ea0-54b7-4055-a79d-c10e4b56a5a4)"><path d="M5.5-29.85L1-31.05 1.65-33Q3.45-32.9 5.15-32.85 6.85-32.8 9.2-32.8L9.2-32.8Q11.35-32.8 13.65-32.85 15.95-32.9 18.05-33L18.05-33 18.75-31.05 13.05-29.9Q13-25.75 13-22.4 13-19.05 13-15.65L13-15.65Q13-13.05 12.98-9.68 12.95-6.3 13.05-3.45L13.05-3.45Q16.15-3.1 18.82-3.3 21.5-3.5 23.65-4.45L23.65-4.45 24.8-10.5 28-10.5Q28-8.2 28.13-5.33 28.25-2.45 28.45 0L28.45 0Q22.35-0.1 17.6-0.13 12.85-0.15 9.4-0.15L9.4-0.15Q6.85-0.15 5.03-0.1 3.2-0.05 1.65 0L1.65 0 1.05-1.9 5.5-2.95Q5.6-6.9 5.68-9.83 5.75-12.75 5.75-15.15L5.75-15.15Q5.75-18.55 5.78-22.18 5.8-25.8 5.5-29.85L5.5-29.85ZM41.7-21.75L41.7-21.75Q41.65-18.85 41.57-16.2 41.5-13.55 41.5-11.4L41.5-11.4Q41.5-9.55 41.57-7.15 41.65-4.75 41.7-2.9L41.7-2.9 45.7-1.85 44.85 0Q43.55-0.1 42.22-0.13 40.9-0.15 38.25-0.15L38.25-0.15Q35.8-0.15 34.42-0.1 33.05-0.05 31.5 0L31.5 0 30.7-1.85 34.95-2.9Q35.05-5.4 35.07-7.25 35.1-9.1 35.05-11.3L35.05-11.3Q35.05-12.45 35.02-13.35 35-14.25 34.95-15.38 34.9-16.5 34.75-18.25L34.75-18.25 31.2-18.9 30.45-20.8Q31.6-20.85 33.42-20.95 35.25-21.05 37.4-21.25 39.55-21.45 41.7-21.75ZM37.95-25.45L37.95-25.45Q36.35-25.45 35.2-26.65 34.05-27.85 34.05-29.6L34.05-29.6Q34.05-31.25 35.2-32.45 36.35-33.65 37.95-33.65L37.95-33.65Q39.55-33.65 40.7-32.45 41.85-31.25 41.85-29.6L41.85-29.6Q41.85-27.85 40.7-26.65 39.55-25.45 37.95-25.45ZM57.65-37.25L57.65-37.25Q57.6-35.85 57.6-34.38 57.6-32.9 57.6-31.45L57.6-31.45Q57.6-28.85 57.62-26.75 57.65-24.65 57.67-22.58 57.7-20.5 57.7-17.9L57.7-17.9Q57.7-16.85 57.7-14.93 57.7-13 57.7-10.85 57.7-8.7 57.72-6.85 57.75-5 57.75-4.1L57.75-4.1 56.65-3.15Q56.1-2.5 55.27-1.68 54.45-0.85 53.6 0L53.6 0 50.5 0Q50.6-1.3 50.65-3.4 50.7-5.5 50.75-8 50.8-10.5 50.82-13.05 50.85-15.6 50.87-17.85 50.9-20.1 50.9-21.7L50.9-21.7Q50.9-24.65 50.75-27.4 50.6-30.15 50.25-33.55L50.25-33.55 46.25-34.2 45.8-36.35Q46.65-36.4 48.12-36.45 49.6-36.5 51.35-36.63 53.1-36.75 54.77-36.9 56.45-37.05 57.65-37.25ZM64.6-21.8L64.6-21.8Q67.35-21.8 69.2-20.28 71.05-18.75 72.02-16.32 73-13.9 73-11.2L73-11.2Q73-8.35 71.92-5.73 70.85-3.1 68.7-1.43 66.55 0.25 63.3 0.25L63.3 0.25Q60.55 0.25 58.47-1.3 56.4-2.85 54.9-5.25L54.9-5.25 56.2-7.35Q57-5.75 58.35-4.5 59.7-3.25 62-3.25L62-3.25Q63.35-3.25 64.3-4.28 65.25-5.3 65.75-6.95 66.25-8.6 66.25-10.4L66.25-10.4Q66.25-12.2 65.75-13.93 65.25-15.65 64.25-16.85 63.25-18.05 61.75-18.25L61.75-18.25Q60.2-18 58.95-15.93 57.7-13.85 57.7-10.2L57.7-10.2 56.25-14.55Q56.75-16.5 57.82-18.15 58.9-19.8 60.6-20.8 62.3-21.8 64.6-21.8ZM85.64-21.7L85.64-21.7Q85.69-20.55 85.79-19 85.89-17.45 85.99-16.18 86.09-14.9 86.09-14.45L86.09-14.45 86.44-3.1 91.39-1.85 90.64 0Q89.79-0.05 88.39-0.08 86.99-0.1 85.49-0.13 83.99-0.15 82.79-0.15L82.79-0.15Q81.24-0.15 79.44-0.1 77.64-0.05 76.14 0L76.14 0 75.39-1.85 79.44-2.9Q79.44-5.15 79.44-6.93 79.44-8.7 79.44-10.8L79.44-10.8Q79.44-11.95 79.42-12.93 79.39-13.9 79.34-15.13 79.29-16.35 79.14-18.15L79.14-18.15 75.74-18.7 75.04-20.8Q76.19-20.85 78.12-20.95 80.04-21.05 82.09-21.25 84.14-21.45 85.64-21.7ZM92.34-21.8L92.34-21.8Q93.74-21.8 94.94-21.28 96.14-20.75 97.24-19.6L97.24-19.6Q96.94-18.1 96.69-17 96.44-15.9 96.12-14.83 95.79-13.75 95.34-12.2L95.34-12.2 92.54-12.2Q92.19-14.05 91.52-15.43 90.84-16.8 89.69-17.3L89.69-17.3Q88.44-16.5 87.32-14.33 86.19-12.15 86.19-8.55L86.19-8.55 84.24-11.45Q84.64-14.25 85.79-16.6 86.94-18.95 88.62-20.38 90.29-21.8 92.34-21.8ZM112.04-21.8L112.04-21.8Q114.69-21.8 116.64-20.18 118.59-18.55 118.59-15.25L118.59-15.25Q118.59-13.1 118.52-11.65 118.44-10.2 118.37-9.08 118.29-7.95 118.29-6.75L118.29-6.75Q118.29-5.35 118.47-4.78 118.64-4.2 119.44-4.2L119.44-4.2Q120.14-4.2 121.54-4.85L121.54-4.85 122.44-2.65Q120.64-1.4 118.99-0.58 117.34 0.25 115.49 0.25L115.49 0.25Q113.94 0.25 112.79-0.98 111.64-2.2 111.64-4.85L111.64-4.85Q111.64-7.3 111.87-9.68 112.09-12.05 112.09-13.9L112.09-13.9Q112.09-15.45 111.64-16.4 111.19-17.35 110.14-17.7L110.14-17.7Q107.84-17.6 105.74-16.85 103.64-16.1 101.44-14.95L101.44-14.95 100.14-17.1Q102.99-19.2 105.92-20.5 108.84-21.8 112.04-21.8ZM115.59-13.95L115.59-13.95 112.59-9.8Q111.49-9.55 110.64-9.3 109.79-9.05 109.09-8.9L109.09-8.9Q107.39-8.55 106.74-8.03 106.09-7.5 106.09-6.2L106.09-6.2Q106.09-5.15 106.64-4.55 107.19-3.95 108.14-3.95L108.14-3.95Q109.29-3.95 111.06-5.03 112.84-6.1 114.09-7.75L114.09-7.75 115.04-5.7Q114.24-4.7 112.77-3.25 111.29-1.8 109.24-0.68 107.19 0.45 104.74 0.45L104.74 0.45Q103.49 0.45 102.31-0.23 101.14-0.9 100.37-2.25 99.59-3.6 99.59-5.6L99.59-5.6Q99.59-7.7 100.87-8.88 102.14-10.05 104.34-10.7 106.54-11.35 109.19-11.8L109.19-11.8Q110.99-12.1 112.54-12.58 114.09-13.05 115.59-13.95ZM134.44-21.7L134.44-21.7Q134.49-20.55 134.59-19 134.69-17.45 134.79-16.18 134.89-14.9 134.89-14.45L134.89-14.45 135.24-3.1 140.19-1.85 139.44 0Q138.59-0.05 137.19-0.08 135.79-0.1 134.29-0.13 132.79-0.15 131.59-0.15L131.59-0.15Q130.04-0.15 128.24-0.1 126.44-0.05 124.94 0L124.94 0 124.19-1.85 128.24-2.9Q128.24-5.15 128.24-6.93 128.24-8.7 128.24-10.8L128.24-10.8Q128.24-11.95 128.21-12.93 128.19-13.9 128.14-15.13 128.09-16.35 127.94-18.15L127.94-18.15 124.54-18.7 123.84-20.8Q124.99-20.85 126.91-20.95 128.84-21.05 130.89-21.25 132.94-21.45 134.44-21.7ZM141.14-21.8L141.14-21.8Q142.54-21.8 143.74-21.28 144.94-20.75 146.04-19.6L146.04-19.6Q145.74-18.1 145.49-17 145.24-15.9 144.91-14.83 144.59-13.75 144.14-12.2L144.14-12.2 141.34-12.2Q140.99-14.05 140.31-15.43 139.64-16.8 138.49-17.3L138.49-17.3Q137.24-16.5 136.11-14.33 134.99-12.15 134.99-8.55L134.99-8.55 133.04-11.45Q133.44-14.25 134.59-16.6 135.74-18.95 137.41-20.38 139.09-21.8 141.14-21.8ZM175.69-21.05L175.69-21.05 176.44-19.15 172.59-18.2Q169.24-10.95 166.06-4.03 162.89 2.9 160.89 9.5L160.89 9.5 165.49 11.05 164.69 13Q163.49 12.9 161.74 12.85 159.99 12.8 158.19 12.8L158.19 12.8Q156.99 12.8 155.46 12.83 153.94 12.85 152.59 12.9 151.24 12.95 150.44 13L150.44 13 149.64 11 155.49 9.4Q156.89 7.4 158.61 4.2 160.34 1 162.14-2.83 163.94-6.65 165.51-10.63 167.09-14.6 168.19-18.2L168.19-18.2 164.29-19.15 164.99-21.05Q166.54-21 167.76-20.98 168.99-20.95 170.29-20.95L170.29-20.95Q171.64-20.95 172.99-20.98 174.34-21 175.69-21.05ZM161.34-21L161.34-21 162.24-19.1 158.64-18.1Q159.24-16.25 159.74-14.85 160.24-13.45 160.76-12.18 161.29-10.9 162.01-9.35 162.74-7.8 163.79-5.65L163.79-5.65Q163.89-5.15 163.54-3.98 163.19-2.8 162.61-1.53 162.04-0.25 161.41 0.65 160.79 1.55 160.39 1.55L160.39 1.55Q158.99-1.55 157.84-4 156.69-6.45 155.64-8.68 154.59-10.9 153.44-13.15 152.29-15.4 150.94-18.1L150.94-18.1 147.14-19.1 147.84-21Q149.34-20.95 150.86-20.9 152.39-20.85 154.34-20.85L154.34-20.85Q156.44-20.85 158.24-20.9 160.04-20.95 161.34-21Z" opacity="1" transform="matrix(1,0,0,1,0,0)" fill="black" class="wordmark-text-0" id="SvgjsPath6218" stroke-width="7" stroke="black" stroke-linejoin="round"></path></svg></g></svg></g></svg></g></svg></g><g></g></svg></g></svg></g></svg></g></mask><g transform="matrix(1,0,0,1,39.55199999999999,73.95676623732528)"><svg viewBox="0 0 316.416 99.28646752534942" height="99.28646752534942" width="316.416"><g><svg viewBox="0 0 316.416 99.28646752534942" height="99.28646752534942" width="316.416"><g><svg viewBox="0 0 316.416 99.28646752534942" height="99.28646752534942" width="316.416"><g><svg viewBox="0 0 316.416 99.28646752534942" height="99.28646752534942" width="316.416"><g id="SvgjsG6217"><svg viewBox="0 0 316.416 99.28646752534942" height="99.28646752534942" width="316.416" id="SvgjsSvg6216"><g><svg viewBox="0 0 316.416 99.28646752534942" height="99.28646752534942" width="316.416"><g transform="matrix(1,0,0,1,0,0)"><svg width="316.416" viewBox="-3 -41.25 183.44 58.25" height="99.28646752534942" data-palette-color="url(#d5ec0ea0-54b7-4055-a79d-c10e4b56a5a4)"><path d="M5.5-29.85L1-31.05 1.65-33Q3.45-32.9 5.15-32.85 6.85-32.8 9.2-32.8L9.2-32.8Q11.35-32.8 13.65-32.85 15.95-32.9 18.05-33L18.05-33 18.75-31.05 13.05-29.9Q13-25.75 13-22.4 13-19.05 13-15.65L13-15.65Q13-13.05 12.98-9.68 12.95-6.3 13.05-3.45L13.05-3.45Q16.15-3.1 18.82-3.3 21.5-3.5 23.65-4.45L23.65-4.45 24.8-10.5 28-10.5Q28-8.2 28.13-5.33 28.25-2.45 28.45 0L28.45 0Q22.35-0.1 17.6-0.13 12.85-0.15 9.4-0.15L9.4-0.15Q6.85-0.15 5.03-0.1 3.2-0.05 1.65 0L1.65 0 1.05-1.9 5.5-2.95Q5.6-6.9 5.68-9.83 5.75-12.75 5.75-15.15L5.75-15.15Q5.75-18.55 5.78-22.18 5.8-25.8 5.5-29.85L5.5-29.85ZM41.7-21.75L41.7-21.75Q41.65-18.85 41.57-16.2 41.5-13.55 41.5-11.4L41.5-11.4Q41.5-9.55 41.57-7.15 41.65-4.75 41.7-2.9L41.7-2.9 45.7-1.85 44.85 0Q43.55-0.1 42.22-0.13 40.9-0.15 38.25-0.15L38.25-0.15Q35.8-0.15 34.42-0.1 33.05-0.05 31.5 0L31.5 0 30.7-1.85 34.95-2.9Q35.05-5.4 35.07-7.25 35.1-9.1 35.05-11.3L35.05-11.3Q35.05-12.45 35.02-13.35 35-14.25 34.95-15.38 34.9-16.5 34.75-18.25L34.75-18.25 31.2-18.9 30.45-20.8Q31.6-20.85 33.42-20.95 35.25-21.05 37.4-21.25 39.55-21.45 41.7-21.75ZM37.95-25.45L37.95-25.45Q36.35-25.45 35.2-26.65 34.05-27.85 34.05-29.6L34.05-29.6Q34.05-31.25 35.2-32.45 36.35-33.65 37.95-33.65L37.95-33.65Q39.55-33.65 40.7-32.45 41.85-31.25 41.85-29.6L41.85-29.6Q41.85-27.85 40.7-26.65 39.55-25.45 37.95-25.45ZM57.65-37.25L57.65-37.25Q57.6-35.85 57.6-34.38 57.6-32.9 57.6-31.45L57.6-31.45Q57.6-28.85 57.62-26.75 57.65-24.65 57.67-22.58 57.7-20.5 57.7-17.9L57.7-17.9Q57.7-16.85 57.7-14.93 57.7-13 57.7-10.85 57.7-8.7 57.72-6.85 57.75-5 57.75-4.1L57.75-4.1 56.65-3.15Q56.1-2.5 55.27-1.68 54.45-0.85 53.6 0L53.6 0 50.5 0Q50.6-1.3 50.65-3.4 50.7-5.5 50.75-8 50.8-10.5 50.82-13.05 50.85-15.6 50.87-17.85 50.9-20.1 50.9-21.7L50.9-21.7Q50.9-24.65 50.75-27.4 50.6-30.15 50.25-33.55L50.25-33.55 46.25-34.2 45.8-36.35Q46.65-36.4 48.12-36.45 49.6-36.5 51.35-36.63 53.1-36.75 54.77-36.9 56.45-37.05 57.65-37.25ZM64.6-21.8L64.6-21.8Q67.35-21.8 69.2-20.28 71.05-18.75 72.02-16.32 73-13.9 73-11.2L73-11.2Q73-8.35 71.92-5.73 70.85-3.1 68.7-1.43 66.55 0.25 63.3 0.25L63.3 0.25Q60.55 0.25 58.47-1.3 56.4-2.85 54.9-5.25L54.9-5.25 56.2-7.35Q57-5.75 58.35-4.5 59.7-3.25 62-3.25L62-3.25Q63.35-3.25 64.3-4.28 65.25-5.3 65.75-6.95 66.25-8.6 66.25-10.4L66.25-10.4Q66.25-12.2 65.75-13.93 65.25-15.65 64.25-16.85 63.25-18.05 61.75-18.25L61.75-18.25Q60.2-18 58.95-15.93 57.7-13.85 57.7-10.2L57.7-10.2 56.25-14.55Q56.75-16.5 57.82-18.15 58.9-19.8 60.6-20.8 62.3-21.8 64.6-21.8ZM85.64-21.7L85.64-21.7Q85.69-20.55 85.79-19 85.89-17.45 85.99-16.18 86.09-14.9 86.09-14.45L86.09-14.45 86.44-3.1 91.39-1.85 90.64 0Q89.79-0.05 88.39-0.08 86.99-0.1 85.49-0.13 83.99-0.15 82.79-0.15L82.79-0.15Q81.24-0.15 79.44-0.1 77.64-0.05 76.14 0L76.14 0 75.39-1.85 79.44-2.9Q79.44-5.15 79.44-6.93 79.44-8.7 79.44-10.8L79.44-10.8Q79.44-11.95 79.42-12.93 79.39-13.9 79.34-15.13 79.29-16.35 79.14-18.15L79.14-18.15 75.74-18.7 75.04-20.8Q76.19-20.85 78.12-20.95 80.04-21.05 82.09-21.25 84.14-21.45 85.64-21.7ZM92.34-21.8L92.34-21.8Q93.74-21.8 94.94-21.28 96.14-20.75 97.24-19.6L97.24-19.6Q96.94-18.1 96.69-17 96.44-15.9 96.12-14.83 95.79-13.75 95.34-12.2L95.34-12.2 92.54-12.2Q92.19-14.05 91.52-15.43 90.84-16.8 89.69-17.3L89.69-17.3Q88.44-16.5 87.32-14.33 86.19-12.15 86.19-8.55L86.19-8.55 84.24-11.45Q84.64-14.25 85.79-16.6 86.94-18.95 88.62-20.38 90.29-21.8 92.34-21.8ZM112.04-21.8L112.04-21.8Q114.69-21.8 116.64-20.18 118.59-18.55 118.59-15.25L118.59-15.25Q118.59-13.1 118.52-11.65 118.44-10.2 118.37-9.08 118.29-7.95 118.29-6.75L118.29-6.75Q118.29-5.35 118.47-4.78 118.64-4.2 119.44-4.2L119.44-4.2Q120.14-4.2 121.54-4.85L121.54-4.85 122.44-2.65Q120.64-1.4 118.99-0.58 117.34 0.25 115.49 0.25L115.49 0.25Q113.94 0.25 112.79-0.98 111.64-2.2 111.64-4.85L111.64-4.85Q111.64-7.3 111.87-9.68 112.09-12.05 112.09-13.9L112.09-13.9Q112.09-15.45 111.64-16.4 111.19-17.35 110.14-17.7L110.14-17.7Q107.84-17.6 105.74-16.85 103.64-16.1 101.44-14.95L101.44-14.95 100.14-17.1Q102.99-19.2 105.92-20.5 108.84-21.8 112.04-21.8ZM115.59-13.95L115.59-13.95 112.59-9.8Q111.49-9.55 110.64-9.3 109.79-9.05 109.09-8.9L109.09-8.9Q107.39-8.55 106.74-8.03 106.09-7.5 106.09-6.2L106.09-6.2Q106.09-5.15 106.64-4.55 107.19-3.95 108.14-3.95L108.14-3.95Q109.29-3.95 111.06-5.03 112.84-6.1 114.09-7.75L114.09-7.75 115.04-5.7Q114.24-4.7 112.77-3.25 111.29-1.8 109.24-0.68 107.19 0.45 104.74 0.45L104.74 0.45Q103.49 0.45 102.31-0.23 101.14-0.9 100.37-2.25 99.59-3.6 99.59-5.6L99.59-5.6Q99.59-7.7 100.87-8.88 102.14-10.05 104.34-10.7 106.54-11.35 109.19-11.8L109.19-11.8Q110.99-12.1 112.54-12.58 114.09-13.05 115.59-13.95ZM134.44-21.7L134.44-21.7Q134.49-20.55 134.59-19 134.69-17.45 134.79-16.18 134.89-14.9 134.89-14.45L134.89-14.45 135.24-3.1 140.19-1.85 139.44 0Q138.59-0.05 137.19-0.08 135.79-0.1 134.29-0.13 132.79-0.15 131.59-0.15L131.59-0.15Q130.04-0.15 128.24-0.1 126.44-0.05 124.94 0L124.94 0 124.19-1.85 128.24-2.9Q128.24-5.15 128.24-6.93 128.24-8.7 128.24-10.8L128.24-10.8Q128.24-11.95 128.21-12.93 128.19-13.9 128.14-15.13 128.09-16.35 127.94-18.15L127.94-18.15 124.54-18.7 123.84-20.8Q124.99-20.85 126.91-20.95 128.84-21.05 130.89-21.25 132.94-21.45 134.44-21.7ZM141.14-21.8L141.14-21.8Q142.54-21.8 143.74-21.28 144.94-20.75 146.04-19.6L146.04-19.6Q145.74-18.1 145.49-17 145.24-15.9 144.91-14.83 144.59-13.75 144.14-12.2L144.14-12.2 141.34-12.2Q140.99-14.05 140.31-15.43 139.64-16.8 138.49-17.3L138.49-17.3Q137.24-16.5 136.11-14.33 134.99-12.15 134.99-8.55L134.99-8.55 133.04-11.45Q133.44-14.25 134.59-16.6 135.74-18.95 137.41-20.38 139.09-21.8 141.14-21.8ZM175.69-21.05L175.69-21.05 176.44-19.15 172.59-18.2Q169.24-10.95 166.06-4.03 162.89 2.9 160.89 9.5L160.89 9.5 165.49 11.05 164.69 13Q163.49 12.9 161.74 12.85 159.99 12.8 158.19 12.8L158.19 12.8Q156.99 12.8 155.46 12.83 153.94 12.85 152.59 12.9 151.24 12.95 150.44 13L150.44 13 149.64 11 155.49 9.4Q156.89 7.4 158.61 4.2 160.34 1 162.14-2.83 163.94-6.65 165.51-10.63 167.09-14.6 168.19-18.2L168.19-18.2 164.29-19.15 164.99-21.05Q166.54-21 167.76-20.98 168.99-20.95 170.29-20.95L170.29-20.95Q171.64-20.95 172.99-20.98 174.34-21 175.69-21.05ZM161.34-21L161.34-21 162.24-19.1 158.64-18.1Q159.24-16.25 159.74-14.85 160.24-13.45 160.76-12.18 161.29-10.9 162.01-9.35 162.74-7.8 163.79-5.65L163.79-5.65Q163.89-5.15 163.54-3.98 163.19-2.8 162.61-1.53 162.04-0.25 161.41 0.65 160.79 1.55 160.39 1.55L160.39 1.55Q158.99-1.55 157.84-4 156.69-6.45 155.64-8.68 154.59-10.9 153.44-13.15 152.29-15.4 150.94-18.1L150.94-18.1 147.14-19.1 147.84-21Q149.34-20.95 150.86-20.9 152.39-20.85 154.34-20.85L154.34-20.85Q156.44-20.85 158.24-20.9 160.04-20.95 161.34-21Z" opacity="1" transform="matrix(1,0,0,1,0,0)" fill="black" class="wordmark-text-0" id="SvgjsPath6215"></path></svg></g></svg></g></svg></g></svg></g><g></g></svg></g></svg></g></svg></g><g mask="url(#0972c6be-6847-46aa-9929-f281cec56fa8)"><g transform="matrix(2.7244444444444444, 0, 0, 2.7244444444444444, 100.23442444444443, 1)"><svg xmlns="http://www.w3.org/2000/svg" xmlns:xlink="http://www.w3.org/1999/xlink" version="1.1" x="0" y="0" viewBox="14.205 5 71.593 90" enable-background="new 0 0 100 100" xml:space="preserve" height="90" width="71.593" class="icon-none" data-fill-palette-color="accent" id="SvgjsSvg6214"><g fill="black"><path d="M84.392 64.521C80.512 70.8 68.967 75.558 54.799 76.445 54.07 76.492 53.333 76.525 52.591 76.549L52.194 76.562A75 75 0 0 1 50.005 76.596H49.997A88 88 0 0 1 47.411 76.549 72 72 0 0 1 45.204 76.445C31.035 75.558 19.489 70.801 15.61 64.521 14.695 63.043 14.208 63.835 14.208 64.568V74.806C14.208 81.035 20.538 87.407 30.145 91.283L30.144 91.285 30.251 91.325C30.855 91.566 31.474 91.797 32.103 92.018 32.238 92.066 32.371 92.114 32.506 92.159 33.188 92.393 33.881 92.617 34.589 92.827L34.691 92.855A53 53 0 0 0 37.205 93.515C37.936 93.69 38.675 93.853 39.43 93.996 39.464 94.004 39.498 94.01 39.531 94.016A53 53 0 0 0 41.698 94.38C41.883 94.407 42.068 94.435 42.254 94.461 43.023 94.567 43.796 94.663 44.583 94.739L44.677 94.747C45.43 94.817 46.193 94.87 46.961 94.911 47.166 94.924 47.37 94.931 47.576 94.941 48.374 94.976 49.181 95 49.996 95H50.006C50.821 95 51.628 94.978 52.431 94.942L53.046 94.912C53.814 94.871 54.576 94.818 55.329 94.748L55.423 94.74A58 58 0 0 0 57.753 94.462C57.94 94.436 58.124 94.408 58.309 94.381 59.039 94.272 59.763 94.153 60.476 94.017 60.509 94.011 60.543 94.005 60.578 93.997A51 51 0 0 0 62.802 93.516C62.959 93.479 63.115 93.44 63.272 93.401 63.965 93.231 64.648 93.05 65.318 92.854 65.351 92.844 65.384 92.835 65.418 92.828 66.127 92.618 66.819 92.395 67.503 92.16 67.637 92.115 67.769 92.067 67.901 92.02 68.531 91.797 69.154 91.567 69.759 91.324 69.793 91.31 69.829 91.3 69.862 91.286L69.861 91.284C79.468 87.407 85.798 81.035 85.798 74.807V64.569C85.794 63.836 85.307 63.045 84.392 64.521" fill="black"></path><path d="M85.748 17.769C84.789 10.656 69.154 5 50.001 5H49.999C30.228 5 14.205 11.027 14.205 18.461V24.901C14.205 32.787 30.227 39.179 49.999 39.179H50.001C69.154 39.179 84.789 33.18 85.748 25.636 85.779 25.392 85.796 25.148 85.796 24.901V18.461A6 6 0 0 0 85.748 17.769" fill="black"></path><path d="M84.454 38.365C81.102 43.235 71.779 47.075 59.94 48.477A83 83 0 0 1 55.21 48.895C55.138 48.899 55.064 48.905 54.989 48.908 54.227 48.952 53.458 48.986 52.68 49.01L52.384 49.019C51.596 49.04 50.803 49.053 50.001 49.053L49.914 49.052C49.166 49.052 48.425 49.039 47.689 49.021L47.273 49.009A84 84 0 0 1 45.046 48.91C44.944 48.905 44.844 48.897 44.744 48.891A83 83 0 0 1 40.145 48.485C28.265 47.092 18.905 43.246 15.547 38.365 14.673 37.094 14.205 37.784 14.205 38.361V50.407C14.205 59.371 30.058 66.642 49.68 66.721L50.319 66.718V66.721L50.529 66.718 50.92 66.716 50.925 66.71C70.266 66.486 85.795 59.277 85.795 50.406V38.36C85.794 37.784 85.326 37.094 84.454 38.365" fill="black"></path></g></svg></g></g></svg></g><defs><mask></mask></defs></svg><rect width="395.52" height="247.2" fill="black" stroke="none" visibility="hidden"></rect></g></mask></svg><rect width="395.52" height="247.2" fill="black" stroke="none" visibility="hidden"></rect></g></mask><linearGradient x1="0" x2="1" y1="0.578" y2="0.595" id="fdbd2211-6147-4f1c-8f90-95119c4b0782"><stop stop-color="#6ee2f5" offset="0"></stop><stop stop-color="#6454f0" offset="1"></stop></linearGradient><rect width="395.52" height="247.2" fill="#000000" mask="url(#89e32d71-3e78-47ef-b083-403f6d659c46)" data-fill-palette-color="accent"></rect></svg><rect width="395.52" height="247.2" fill="none" stroke="none" visibility="hidden"></rect></g></svg></g></svg>